<svg xmlns="http://www.w3.org/2000/svg" viewBox="0 0 32 32">
  <path fill="#E1306C" d="M22 2H10C5.58 2 2 5.58 2 10v12c0 4.42 3.58 8 8 8h12c4.42 0 8-3.58 8-8V10c0-4.42-3.58-8-8-8z"/>
  <path fill="#fff" d="M16 11.2A4.8 4.8 0 1 0 16 20.8a4.8 4.8 0 0 0 0-9.6zm0 7.9A3.1 3.1 0 1 1 16 12.9a3.1 3.1 0 0 1 0 6.2z"/>
  <circle cx="22.2" cy="9.8" r="1.2" fill="#fff"/>
  <path fill="#fff" d="M21 8.2H11c-1.54 0-2.8 1.26-2.8 2.8v10c0 1.54 1.26 2.8 2.8 2.8h10c1.54 0 2.8-1.26 2.8-2.8V11c0-1.54-1.26-2.8-2.8-2.8zm1.1 12.8c0 .6-.5 1.1-1.1 1.1H11c-.6 0-1.1-.5-1.1-1.1V11c0-.6.5-1.1 1.1-1.1h10c.6 0 1.1.5 1.1 1.1v10z"/>
</svg>
