<svg xmlns="http://www.w3.org/2000/svg" viewBox="0 0 32 32">
  <path fill="#25D366" d="M16 2C8.27 2 2 8.27 2 16c0 2.82.83 5.45 2.27 7.66L3 30l6.5-1.7A13.93 13.93 0 0 0 16 30c7.73 0 14-6.27 14-14S23.73 2 16 2z"/>
  <path fill="#fff" d="M23.2 19.3c-.3-.15-1.8-.9-2.1-1-.3-.1-.5-.15-.7.15-.2.3-.8 1-.95 1.2-.18.2-.35.22-.65.07-.3-.15-1.25-.46-2.38-1.46-.88-.78-1.48-1.74-1.65-2.04-.18-.3-.02-.47.13-.62.13-.13.3-.35.45-.52.15-.18.2-.3.3-.5.1-.2.05-.37-.02-.52-.08-.15-.7-1.7-.95-2.33-.25-.6-.5-.52-.7-.52h-.6c-.2 0-.52.07-.8.37-.28.3-1.05 1.03-1.05 2.5s1.08 2.9 1.23 3.1c.15.2 2.12 3.25 5.13 4.56.72.3 1.28.48 1.72.62.72.23 1.38.2 1.9.12.58-.08 1.8-.73 2.05-1.43.25-.7.25-1.3.18-1.43-.08-.12-.28-.2-.58-.35z"/>
</svg>
